RobotoSerifTextWide-Regular-20.ufo
<glyph name="numbersign" format="1">
  <advance width="738"/>
  <unicode hex="0023"/>
  <outline>
    <contour>
      <point x="124" y="0" type="line"/>
      <point x="192" y="0" type="line"/>
      <point x="361" y="750" type="line"/>
      <point x="293" y="750" type="line"/>
    </contour>
    <contour>
      <point x="38" y="242" type="line"/>
      <point x="639" y="242" type="line"/>
      <point x="639" y="316" type="line"/>
      <point x="38" y="316" type="line"/>
    </contour>
    <contour>
      <point x="88" y="454" type="line"/>
      <point x="688" y="454" type="line"/>
      <point x="688" y="528" type="line"/>
      <point x="88" y="528" type="line"/>
    </contour>
    <contour>
      <point x="359" y="0" type="line"/>
      <point x="428" y="0" type="line"/>
      <point x="597" y="750" type="line"/>
      <point x="527" y="750" type="line"/>
    </contour>
  </outline>
</glyph>
<glyph name="question" format="1">
  <advance width="638"/>
  <unicode hex="003F"/>
  <outline>
    <contour>
      <point x="252" y="364" type="line"/>
      <point x="380" y="405"/>
      <point x="473" y="448"/>
      <point x="473" y="556" type="curve" smooth="yes"/>
      <point x="473" y="633"/>
      <point x="411" y="679"/>
      <point x="317" y="679" type="curve" smooth="yes"/>
      <point x="225" y="679"/>
      <point x="161" y="640"/>
      <point x="127" y="594" type="curve"/>
      <point x="128" y="632"/>
      <point x="138" y="657"/>
      <point x="168" y="662" type="curve"/>
      <point x="168" y="554" type="line"/>
      <point x="72" y="554" type="line"/>
      <point x="72" y="651" type="line"/>
      <point x="110" y="691"/>
      <point x="201" y="741"/>
      <point x="319" y="741" type="curve" smooth="yes"/>
      <point x="474" y="741"/>
      <point x="572" y="666"/>
      <point x="572" y="555" type="curve" smooth="yes"/>
      <point x="572" y="430"/>
      <point x="448" y="363"/>
      <point x="332" y="327" type="curve"/>
      <point x="332" y="217" type="line"/>
      <point x="252" y="217" type="line"/>
    </contour>
    <component base="period" xOffset="148" yOffset="-1"/>
  </outline>
</glyph>
<glyph name="C" format="1">
  <advance width="821"/>
  <unicode hex="0043"/>
  <outline>
    <contour>
      <point x="433" y="656" type="curve" smooth="yes"/>
      <point x="571" y="656"/>
      <point x="657" y="595"/>
      <point x="698" y="505" type="curve"/>
      <point x="768" y="505" type="line"/>
      <point x="768" y="710" type="line"/>
      <point x="707" y="710" type="line"/>
      <point x="687" y="561" type="line"/>
      <point x="725" y="560" type="line"/>
      <point x="685" y="661"/>
      <point x="590" y="720"/>
      <point x="432" y="720" type="curve" smooth="yes"/>
      <point x="220" y="720"/>
      <point x="45" y="569"/>
      <point x="45" y="355" type="curve" smooth="yes"/>
      <point x="45" y="138"/>
      <point x="210" y="-10"/>
      <point x="444" y="-10" type="curve" smooth="yes"/>
      <point x="623" y="-10"/>
      <point x="742" y="87"/>
      <point x="787" y="231" type="curve"/>
      <point x="723" y="257" type="line"/>
      <point x="689" y="140"/>
      <point x="596" y="54"/>
      <point x="452" y="54" type="curve" smooth="yes"/>
      <point x="267" y="54"/>
      <point x="150" y="173"/>
      <point x="150" y="355" type="curve" smooth="yes"/>
      <point x="150" y="537"/>
      <point x="277" y="656"/>
    </contour>
  </outline>
</glyph>
<glyph name="D" format="1">
  <advance width="872"/>
  <unicode hex="0044"/>
  <outline>
    <contour>
      <point x="406" y="649" type="line" smooth="yes"/>
      <point x="603" y="649"/>
      <point x="722" y="544"/>
      <point x="722" y="357" type="curve" smooth="yes"/>
      <point x="722" y="170"/>
      <point x="603" y="61"/>
      <point x="406" y="61" type="curve" smooth="yes"/>
      <point x="255" y="61" type="line"/>
      <point x="255" y="649" type="line"/>
    </contour>
    <contour>
      <point x="63" y="0" type="line"/>
      <point x="406" y="0" type="line" smooth="yes"/>
      <point x="660" y="0"/>
      <point x="827" y="140"/>
      <point x="827" y="357" type="curve" smooth="yes"/>
      <point x="827" y="577"/>
      <point x="663" y="710"/>
      <point x="406" y="710" type="curve" smooth="yes"/>
      <point x="63" y="710" type="line"/>
      <point x="63" y="661" type="line"/>
      <point x="76" y="661" type="line" smooth="yes"/>
      <point x="122" y="661"/>
      <point x="156" y="654"/>
      <point x="156" y="625" type="curve" smooth="yes"/>
      <point x="156" y="85" type="line" smooth="yes"/>
      <point x="156" y="56"/>
      <point x="122" y="49"/>
      <point x="76" y="49" type="curve" smooth="yes"/>
      <point x="63" y="49" type="line"/>
    </contour>
    <contour>
      <point x="440" y="741" type="move" name="top"/>
    </contour>
    <contour>
      <point x="442" y="0" type="move" name="bottom"/>
    </contour>
  </outline>
</glyph>
<glyph name="F" format="1">
  <advance width="687"/>
  <unicode hex="0046"/>
  <outline>
    <contour>
      <point x="255" y="649" type="line"/>
      <point x="424" y="649" type="line" smooth="yes"/>
      <point x="548" y="649"/>
      <point x="568" y="643"/>
      <point x="574" y="599" type="curve" smooth="yes"/>
      <point x="582" y="537" type="line"/>
      <point x="642" y="537" type="line"/>
      <point x="642" y="710" type="line"/>
      <point x="63" y="710" type="line"/>
      <point x="63" y="661" type="line"/>
      <point x="76" y="661" type="line" smooth="yes"/>
      <point x="122" y="661"/>
      <point x="156" y="654"/>
      <point x="156" y="625" type="curve" smooth="yes"/>
      <point x="156" y="85" type="line" smooth="yes"/>
      <point x="156" y="56"/>
      <point x="122" y="49"/>
      <point x="76" y="49" type="curve" smooth="yes"/>
      <point x="63" y="49" type="line"/>
      <point x="63" y="0" type="line"/>
      <point x="372" y="0" type="line"/>
      <point x="372" y="49" type="line"/>
      <point x="352" y="49" type="line" smooth="yes"/>
      <point x="308" y="49"/>
      <point x="255" y="50"/>
      <point x="255" y="85" type="curve" smooth="yes"/>
    </contour>
    <contour>
      <point x="222" y="384" type="curve"/>
      <point x="222" y="329" type="line"/>
      <point x="328" y="326"/>
      <point x="435" y="323"/>
      <point x="541" y="320" type="curve"/>
      <point x="541" y="392" type="line"/>
      <point x="435" y="389"/>
      <point x="328" y="386"/>
    </contour>
  </outline>
</glyph>
<glyph name="H" format="1">
  <advance width="949"/>
  <unicode hex="0048"/>
  <outline>
    <contour>
      <point x="222" y="396" type="line"/>
      <point x="222" y="336" type="line"/>
      <point x="731" y="336" type="line"/>
      <point x="731" y="396" type="line"/>
    </contour>
    <contour>
      <point x="63" y="0" type="line"/>
      <point x="348" y="0" type="line"/>
      <point x="348" y="49" type="line"/>
      <point x="337" y="49" type="line" smooth="yes"/>
      <point x="301" y="49"/>
      <point x="255" y="52"/>
      <point x="255" y="59" type="curve" smooth="yes"/>
      <point x="255" y="651" type="line" smooth="yes"/>
      <point x="255" y="658"/>
      <point x="301" y="661"/>
      <point x="337" y="661" type="curve" smooth="yes"/>
      <point x="348" y="661" type="line"/>
      <point x="348" y="710" type="line"/>
      <point x="63" y="710" type="line"/>
      <point x="63" y="661" type="line"/>
      <point x="76" y="661" type="line" smooth="yes"/>
      <point x="122" y="661"/>
      <point x="156" y="654"/>
      <point x="156" y="625" type="curve" smooth="yes"/>
      <point x="156" y="85" type="line" smooth="yes"/>
      <point x="156" y="56"/>
      <point x="122" y="49"/>
      <point x="76" y="49" type="curve" smooth="yes"/>
      <point x="63" y="49" type="line"/>
    </contour>
    <contour>
      <point x="601" y="0" type="line"/>
      <point x="886" y="0" type="line"/>
      <point x="886" y="49" type="line"/>
      <point x="873" y="49" type="line" smooth="yes"/>
      <point x="827" y="49"/>
      <point x="793" y="56"/>
      <point x="793" y="85" type="curve" smooth="yes"/>
      <point x="793" y="625" type="line" smooth="yes"/>
      <point x="793" y="654"/>
      <point x="827" y="661"/>
      <point x="873" y="661" type="curve" smooth="yes"/>
      <point x="886" y="661" type="line"/>
      <point x="886" y="710" type="line"/>
      <point x="601" y="710" type="line"/>
      <point x="601" y="661" type="line"/>
      <point x="611" y="661" type="line" smooth="yes"/>
      <point x="647" y="661"/>
      <point x="694" y="658"/>
      <point x="694" y="651" type="curve" smooth="yes"/>
      <point x="694" y="59" type="line" smooth="yes"/>
      <point x="694" y="52"/>
      <point x="647" y="49"/>
      <point x="611" y="49" type="curve" smooth="yes"/>
      <point x="601" y="49" type="line"/>
    </contour>
    <contour>
      <point x="475" y="741" type="move" name="top"/>
    </contour>
    <contour>
      <point x="475" y="0" type="move" name="bottom"/>
    </contour>
  </outline>
</glyph>
<glyph name="I" format="1">
  <advance width="410"/>
  <unicode hex="0049"/>
  <outline>
    <contour>
      <point x="156" y="85" type="line" smooth="yes"/>
      <point x="156" y="56"/>
      <point x="122" y="49"/>
      <point x="76" y="49" type="curve" smooth="yes"/>
      <point x="63" y="49" type="line"/>
      <point x="63" y="0" type="line"/>
      <point x="348" y="0" type="line"/>
      <point x="348" y="49" type="line"/>
      <point x="335" y="49" type="line" smooth="yes"/>
      <point x="289" y="49"/>
      <point x="255" y="56"/>
      <point x="255" y="85" type="curve" smooth="yes"/>
      <point x="255" y="625" type="line" smooth="yes"/>
      <point x="255" y="654"/>
      <point x="289" y="661"/>
      <point x="335" y="661" type="curve" smooth="yes"/>
      <point x="348" y="661" type="line"/>
      <point x="348" y="710" type="line"/>
      <point x="63" y="710" type="line"/>
      <point x="63" y="661" type="line"/>
      <point x="76" y="661" type="line" smooth="yes"/>
      <point x="122" y="661"/>
      <point x="156" y="654"/>
      <point x="156" y="625" type="curve" smooth="yes"/>
    </contour>
    <contour>
      <point x="206" y="741" type="move" name="top"/>
    </contour>
    <contour>
      <point x="273" y="0" type="move" name="right"/>
    </contour>
    <contour>
      <point x="206" y="0" type="move" name="bottom"/>
    </contour>
  </outline>
</glyph>
<glyph name="J" format="1">
  <advance width="636"/>
  <unicode hex="004A"/>
  <outline>
    <contour>
      <point x="283" y="710" type="line"/>
      <point x="283" y="661" type="line"/>
      <point x="308" y="661" type="line" smooth="yes"/>
      <point x="354" y="661"/>
      <point x="388" y="654"/>
      <point x="388" y="625" type="curve" smooth="yes"/>
      <point x="388" y="231" type="line" smooth="yes"/>
      <point x="388" y="89"/>
      <point x="332" y="52"/>
      <point x="239" y="52" type="curve" smooth="yes"/>
      <point x="171" y="52"/>
      <point x="124" y="72"/>
      <point x="102" y="101" type="curve"/>
      <point x="81" y="100"/>
      <point x="87" y="66"/>
      <point x="130" y="62" type="curve"/>
      <point x="130" y="163" type="line"/>
      <point x="29" y="163" type="line"/>
      <point x="29" y="54" type="line"/>
      <point x="72" y="17"/>
      <point x="145" y="-10"/>
      <point x="239" y="-10" type="curve" smooth="yes"/>
      <point x="388" y="-10"/>
      <point x="484" y="50"/>
      <point x="484" y="231" type="curve" smooth="yes"/>
      <point x="484" y="625" type="line" smooth="yes"/>
      <point x="484" y="654"/>
      <point x="518" y="661"/>
      <point x="564" y="661" type="curve" smooth="yes"/>
      <point x="577" y="661" type="line"/>
      <point x="577" y="710" type="line"/>
    </contour>
    <contour>
      <point x="431" y="741" type="move" name="top"/>
    </contour>
  </outline>
</glyph>
<glyph name="Q" format="1">
  <advance width="908"/>
  <unicode hex="0051"/>
  <outline>
    <contour>
      <point x="414" y="3" type="line"/>
      <point x="407" y="-144"/>
      <point x="511" y="-187"/>
      <point x="661" y="-187" type="curve" smooth="yes"/>
      <point x="715" y="-187"/>
      <point x="767" y="-180"/>
      <point x="816" y="-168" type="curve"/>
      <point x="816" y="-73" type="line"/>
      <point x="762" y="-92"/>
      <point x="714" y="-104"/>
      <point x="649" y="-104" type="curve" smooth="yes"/>
      <point x="547" y="-104"/>
      <point x="482" y="-82"/>
      <point x="488" y="10" type="curve"/>
    </contour>
    <contour>
      <point x="454" y="720" type="curve" smooth="yes"/>
      <point x="227" y="720"/>
      <point x="45" y="572"/>
      <point x="45" y="355" type="curve" smooth="yes"/>
      <point x="45" y="139"/>
      <point x="227" y="-10"/>
      <point x="454" y="-10" type="curve" smooth="yes"/>
      <point x="681" y="-10"/>
      <point x="863" y="139"/>
      <point x="863" y="355" type="curve" smooth="yes"/>
      <point x="863" y="572"/>
      <point x="681" y="720"/>
    </contour>
    <contour>
      <point x="454" y="52" type="curve" smooth="yes"/>
      <point x="281" y="52"/>
      <point x="150" y="169"/>
      <point x="150" y="355" type="curve" smooth="yes"/>
      <point x="150" y="541"/>
      <point x="280" y="658"/>
      <point x="454" y="658" type="curve" smooth="yes"/>
      <point x="627" y="658"/>
      <point x="758" y="541"/>
      <point x="758" y="355" type="curve" smooth="yes"/>
      <point x="758" y="169"/>
      <point x="627" y="52"/>
    </contour>
  </outline>
</glyph>
<glyph name="U" format="1">
  <advance width="926"/>
  <unicode hex="0055"/>
  <outline>
    <contour>
      <point x="253" y="259" type="curve" smooth="yes"/>
      <point x="253" y="651" type="line" smooth="yes"/>
      <point x="253" y="658"/>
      <point x="299" y="661"/>
      <point x="335" y="661" type="curve" smooth="yes"/>
      <point x="346" y="661" type="line"/>
      <point x="346" y="710" type="line"/>
      <point x="61" y="710" type="line"/>
      <point x="61" y="661" type="line"/>
      <point x="74" y="661" type="line" smooth="yes"/>
      <point x="120" y="661"/>
      <point x="154" y="654"/>
      <point x="154" y="625" type="curve" smooth="yes"/>
      <point x="154" y="259" type="line" smooth="yes"/>
      <point x="154" y="68"/>
      <point x="287" y="-10"/>
      <point x="470" y="-10" type="curve" smooth="yes"/>
      <point x="638" y="-10"/>
      <point x="772" y="68"/>
      <point x="772" y="258" type="curve" smooth="yes"/>
      <point x="772" y="616" type="line" smooth="yes"/>
      <point x="772" y="650"/>
      <point x="806" y="661"/>
      <point x="852" y="661" type="curve" smooth="yes"/>
      <point x="865" y="661" type="line"/>
      <point x="865" y="710" type="line"/>
      <point x="609" y="710" type="line"/>
      <point x="609" y="661" type="line"/>
      <point x="620" y="661" type="line" smooth="yes"/>
      <point x="655" y="661"/>
      <point x="702" y="653"/>
      <point x="702" y="639" type="curve" smooth="yes"/>
      <point x="702" y="259" type="line" smooth="yes"/>
      <point x="702" y="106"/>
      <point x="608" y="59"/>
      <point x="482" y="59" type="curve" smooth="yes"/>
      <point x="349" y="59"/>
      <point x="253" y="108"/>
    </contour>
    <contour>
      <point x="467" y="741" type="move" name="top"/>
    </contour>
    <contour>
      <point x="532" y="0" type="move" name="right"/>
    </contour>
    <contour>
      <point x="467" y="0" type="move" name="bottom"/>
    </contour>
  </outline>
</glyph>
<glyph name="V" format="1">
  <advance width="798"/>
  <unicode hex="0056"/>
  <outline>
    <contour>
      <point x="431" y="40" type="line"/>
      <point x="180" y="651" type="line"/>
      <point x="180" y="658"/>
      <point x="220" y="661"/>
      <point x="256" y="661" type="curve" smooth="yes"/>
      <point x="276" y="661" type="line"/>
      <point x="276" y="710" type="line"/>
      <point x="10" y="710" type="line"/>
      <point x="10" y="661" type="line"/>
      <point x="16" y="661" type="line"/>
      <point x="50" y="661"/>
      <point x="71" y="659"/>
      <point x="82" y="633" type="curve" smooth="yes"/>
      <point x="345" y="0" type="line"/>
      <point x="456" y="0" type="line"/>
      <point x="710" y="618" type="line" smooth="yes"/>
      <point x="725" y="654"/>
      <point x="743" y="661"/>
      <point x="782" y="661" type="curve"/>
      <point x="788" y="661" type="line"/>
      <point x="788" y="710" type="line"/>
      <point x="552" y="710" type="line"/>
      <point x="552" y="661" type="line"/>
      <point x="569" y="661" type="line" smooth="yes"/>
      <point x="605" y="661"/>
      <point x="649" y="654"/>
      <point x="649" y="643" type="curve"/>
      <point x="406" y="45" type="line"/>
    </contour>
  </outline>
</glyph>
<glyph name="W" format="1">
  <advance width="1161"/>
  <unicode hex="0057"/>
  <outline>
    <contour>
      <point x="10" y="710" type="line"/>
      <point x="10" y="661" type="line"/>
      <point x="16" y="661" type="line" smooth="yes"/>
      <point x="54" y="661"/>
      <point x="77" y="658"/>
      <point x="87" y="625" type="curve" smooth="yes"/>
      <point x="286" y="0" type="line"/>
      <point x="394" y="0" type="line"/>
      <point x="590" y="640" type="line"/>
      <point x="567" y="640" type="line"/>
      <point x="783" y="0" type="line"/>
      <point x="891" y="0" type="line"/>
      <point x="1074" y="618" type="line" smooth="yes"/>
      <point x="1084" y="652"/>
      <point x="1109" y="661"/>
      <point x="1145" y="661" type="curve" smooth="yes"/>
      <point x="1151" y="661" type="line"/>
      <point x="1151" y="710" type="line"/>
      <point x="915" y="710" type="line"/>
      <point x="915" y="661" type="line"/>
      <point x="932" y="661" type="line" smooth="yes"/>
      <point x="968" y="661"/>
      <point x="1010" y="654"/>
      <point x="1010" y="643" type="curve"/>
      <point x="840" y="57" type="line"/>
      <point x="862" y="57" type="line"/>
      <point x="644" y="710" type="line"/>
      <point x="541" y="710" type="line"/>
      <point x="343" y="54" type="line"/>
      <point x="368" y="54" type="line"/>
      <point x="182" y="651" type="line"/>
      <point x="182" y="658"/>
      <point x="222" y="661"/>
      <point x="255" y="661" type="curve" smooth="yes"/>
      <point x="275" y="661" type="line"/>
      <point x="275" y="710" type="line"/>
    </contour>
    <contour>
      <point x="596" y="741" type="move" name="top"/>
    </contour>
  </outline>
</glyph>
<glyph name="Y" format="1">
  <advance width="786"/>
  <unicode hex="0059"/>
  <outline>
    <contour>
      <point x="345" y="316" type="line"/>
      <point x="345" y="85" type="line" smooth="yes"/>
      <point x="345" y="56"/>
      <point x="311" y="49"/>
      <point x="265" y="49" type="curve" smooth="yes"/>
      <point x="247" y="49" type="line"/>
      <point x="247" y="0" type="line"/>
      <point x="543" y="0" type="line"/>
      <point x="543" y="49" type="line"/>
      <point x="524" y="49" type="line" smooth="yes"/>
      <point x="479" y="49"/>
      <point x="445" y="56"/>
      <point x="445" y="85" type="curve" smooth="yes"/>
      <point x="445" y="316" type="line"/>
      <point x="429" y="269" type="line"/>
      <point x="673" y="620" type="line" smooth="yes"/>
      <point x="698" y="656"/>
      <point x="729" y="661"/>
      <point x="765" y="661" type="curve" smooth="yes"/>
      <point x="771" y="661" type="line"/>
      <point x="771" y="710" type="line"/>
      <point x="522" y="710" type="line"/>
      <point x="522" y="661" type="line"/>
      <point x="539" y="661" type="line" smooth="yes"/>
      <point x="575" y="661"/>
      <point x="616" y="654"/>
      <point x="616" y="643" type="curve"/>
      <point x="395" y="322" type="line"/>
      <point x="431" y="322" type="line"/>
      <point x="199" y="651" type="line"/>
      <point x="199" y="658"/>
      <point x="234" y="661"/>
      <point x="266" y="661" type="curve" smooth="yes"/>
      <point x="286" y="661" type="line"/>
      <point x="286" y="710" type="line"/>
      <point x="15" y="710" type="line"/>
      <point x="15" y="661" type="line"/>
      <point x="21" y="661" type="line" smooth="yes"/>
      <point x="57" y="661"/>
      <point x="82" y="660"/>
      <point x="100" y="635" type="curve" smooth="yes"/>
      <point x="361" y="271" type="line"/>
    </contour>
    <contour>
      <point x="396" y="741" type="move" name="top"/>
    </contour>
    <contour>
      <point x="396" y="0" type="move" name="bottom"/>
    </contour>
  </outline>
</glyph>
<glyph name="Z" format="1">
  <advance width="708"/>
  <unicode hex="005A"/>
  <outline>
    <contour>
      <point x="99" y="61" type="line"/>
      <point x="117" y="18" type="line"/>
      <point x="647" y="643" type="line"/>
      <point x="647" y="710" type="line"/>
      <point x="66" y="710" type="line"/>
      <point x="66" y="532" type="line"/>
      <point x="126" y="532" type="line"/>
      <point x="136" y="611" type="line" smooth="yes"/>
      <point x="140" y="643"/>
      <point x="182" y="649"/>
      <point x="283" y="649" type="curve" smooth="yes"/>
      <point x="585" y="649" type="line"/>
      <point x="563" y="680" type="line"/>
      <point x="46" y="70" type="line"/>
      <point x="46" y="0" type="line"/>
      <point x="659" y="0" type="line"/>
      <point x="659" y="194" type="line"/>
      <point x="597" y="194" type="line"/>
      <point x="587" y="99" type="line" smooth="yes"/>
      <point x="584" y="67"/>
      <point x="541" y="61"/>
      <point x="440" y="61" type="curve" smooth="yes"/>
    </contour>
    <contour>
      <point x="374" y="741" type="move" name="top"/>
    </contour>
    <contour>
      <point x="374" y="0" type="move" name="bottom"/>
    </contour>
  </outline>
</glyph>
<glyph name="a" format="1">
  <advance width="614"/>
  <unicode hex="0061"/>
  <outline>
    <contour>
      <point x="442" y="313" type="line"/>
      <point x="168" y="291"/>
      <point x="53" y="237"/>
      <point x="53" y="122" type="curve" smooth="yes"/>
      <point x="53" y="38"/>
      <point x="121" y="-10"/>
      <point x="223" y="-10" type="curve" smooth="yes"/>
      <point x="324" y="-10"/>
      <point x="399" y="39"/>
      <point x="439" y="114" type="curve"/>
      <point x="439" y="187" type="line"/>
      <point x="396" y="102"/>
      <point x="330" y="48"/>
      <point x="244" y="48" type="curve" smooth="yes"/>
      <point x="187" y="48"/>
      <point x="153" y="77"/>
      <point x="153" y="124" type="curve" smooth="yes"/>
      <point x="153" y="205"/>
      <point x="226" y="244"/>
      <point x="442" y="259" type="curve"/>
    </contour>
    <contour>
      <point x="424" y="0" type="line"/>
      <point x="587" y="0" type="line"/>
      <point x="587" y="47" type="line"/>
      <point x="584" y="47" type="line" smooth="yes"/>
      <point x="540" y="47"/>
      <point x="508" y="54"/>
      <point x="508" y="82" type="curve" smooth="yes"/>
      <point x="508" y="358" type="line" smooth="yes"/>
      <point x="508" y="477"/>
      <point x="406" y="518"/>
      <point x="299" y="518" type="curve" smooth="yes"/>
      <point x="197" y="518"/>
      <point x="121" y="482"/>
      <point x="87" y="458" type="curve"/>
      <point x="87" y="354" type="line"/>
      <point x="182" y="354" type="line"/>
      <point x="182" y="457" type="line"/>
      <point x="152" y="446"/>
      <point x="129" y="426"/>
      <point x="134" y="394" type="curve"/>
      <point x="164" y="429"/>
      <point x="215" y="460"/>
      <point x="293" y="460" type="curve" smooth="yes"/>
      <point x="370" y="460"/>
      <point x="414" y="433"/>
      <point x="414" y="351" type="curve" smooth="yes"/>
      <point x="414" y="114" type="line"/>
      <point x="424" y="111" type="line"/>
    </contour>
    <contour>
      <point x="281" y="553" type="move" name="top"/>
    </contour>
    <contour>
      <point x="462" y="-10" type="move" name="right"/>
    </contour>
    <contour>
      <point x="314" y="0" type="move" name="bottom"/>
    </contour>
  </outline>
</glyph>
<glyph name="b" format="1">
  <advance width="725"/>
  <unicode hex="0062"/>
  <outline>
    <contour>
      <point x="406" y="-10" type="curve" smooth="yes"/>
      <point x="571" y="-10"/>
      <point x="681" y="99"/>
      <point x="681" y="257" type="curve" smooth="yes"/>
      <point x="681" y="414"/>
      <point x="581" y="518"/>
      <point x="426" y="518" type="curve" smooth="yes"/>
      <point x="329" y="518"/>
      <point x="247" y="473"/>
      <point x="194" y="394" type="curve"/>
      <point x="194" y="309" type="line"/>
      <point x="248" y="410"/>
      <point x="322" y="458"/>
      <point x="414" y="458" type="curve" smooth="yes"/>
      <point x="523" y="458"/>
      <point x="581" y="381"/>
      <point x="581" y="257" type="curve" smooth="yes"/>
      <point x="581" y="133"/>
      <point x="519" y="50"/>
      <point x="403" y="50" type="curve" smooth="yes"/>
      <point x="315" y="50"/>
      <point x="247" y="94"/>
      <point x="194" y="191" type="curve"/>
      <point x="194" y="100" type="line"/>
      <point x="237" y="32"/>
      <point x="316" y="-10"/>
    </contour>
    <contour>
      <point x="116" y="644" type="curve" smooth="yes"/>
      <point x="116" y="-3" type="line"/>
      <point x="180" y="-3" type="line"/>
      <point x="201" y="106" type="line"/>
      <point x="211" y="120" type="line"/>
      <point x="211" y="735" type="line"/>
      <point x="36" y="735" type="line"/>
      <point x="36" y="687" type="line"/>
      <point x="49" y="685" type="line" smooth="yes"/>
      <point x="96" y="678"/>
      <point x="116" y="673"/>
    </contour>
  </outline>
</glyph>
<glyph name="f" format="1">
  <advance width="430"/>
  <unicode hex="0066"/>
  <outline>
    <contour>
      <point x="54" y="508" type="line"/>
      <point x="54" y="450" type="line"/>
      <point x="416" y="450" type="line"/>
      <point x="416" y="508" type="line"/>
    </contour>
    <contour>
      <point x="462" y="742" type="line"/>
      <point x="443" y="747"/>
      <point x="404" y="752"/>
      <point x="369" y="752" type="curve" smooth="yes"/>
      <point x="258" y="752"/>
      <point x="156" y="710"/>
      <point x="156" y="575" type="curve" smooth="yes"/>
      <point x="156" y="82" type="line" smooth="yes"/>
      <point x="156" y="54"/>
      <point x="125" y="47"/>
      <point x="73" y="47" type="curve" smooth="yes"/>
      <point x="60" y="47" type="line"/>
      <point x="60" y="0" type="line"/>
      <point x="369" y="0" type="line"/>
      <point x="369" y="47" type="line"/>
      <point x="353" y="47" type="line" smooth="yes"/>
      <point x="296" y="47"/>
      <point x="252" y="50"/>
      <point x="252" y="56" type="curve" smooth="yes"/>
      <point x="252" y="577" type="line" smooth="yes"/>
      <point x="252" y="672"/>
      <point x="301" y="694"/>
      <point x="369" y="694" type="curve" smooth="yes"/>
      <point x="405" y="694"/>
      <point x="438" y="685"/>
      <point x="462" y="677" type="curve"/>
    </contour>
  </outline>
</glyph>
<glyph name="g" format="1">
  <advance width="658"/>
  <unicode hex="0067"/>
  <outline>
    <contour>
      <point x="313" y="211" type="curve" smooth="yes"/>
      <point x="231" y="211"/>
      <point x="177" y="254"/>
      <point x="177" y="333" type="curve" smooth="yes"/>
      <point x="177" y="413"/>
      <point x="232" y="459"/>
      <point x="313" y="459" type="curve" smooth="yes"/>
      <point x="394" y="459"/>
      <point x="449" y="413"/>
      <point x="449" y="333" type="curve" smooth="yes"/>
      <point x="449" y="254"/>
      <point x="395" y="211"/>
    </contour>
    <contour>
      <point x="313" y="152" type="curve" smooth="yes"/>
      <point x="445" y="152"/>
      <point x="544" y="223"/>
      <point x="544" y="334" type="curve" smooth="yes"/>
      <point x="544" y="444"/>
      <point x="444" y="518"/>
      <point x="313" y="518" type="curve" smooth="yes"/>
      <point x="182" y="518"/>
      <point x="82" y="444"/>
      <point x="82" y="334" type="curve" smooth="yes"/>
      <point x="82" y="223"/>
      <point x="181" y="152"/>
    </contour>
    <contour>
      <point x="465" y="412" type="line"/>
      <point x="499" y="446"/>
      <point x="548" y="446"/>
      <point x="647" y="438" type="curve"/>
      <point x="647" y="529" type="line"/>
      <point x="562" y="538"/>
      <point x="492" y="502"/>
      <point x="450" y="426" type="curve"/>
    </contour>
    <contour>
      <point x="334" y="-236" type="line" smooth="yes"/>
      <point x="494" y="-236"/>
      <point x="630" y="-181"/>
      <point x="630" y="-62" type="curve" smooth="yes"/>
      <point x="630" y="21"/>
      <point x="565" y="64"/>
      <point x="453" y="64" type="curve" smooth="yes"/>
      <point x="224" y="64" type="line" smooth="yes"/>
      <point x="177" y="64"/>
      <point x="151" y="75"/>
      <point x="151" y="103" type="curve" smooth="yes"/>
      <point x="151" y="130"/>
      <point x="177" y="154"/>
      <point x="235" y="172" type="curve"/>
      <point x="194" y="199" type="line"/>
      <point x="109" y="167"/>
      <point x="63" y="124"/>
      <point x="63" y="76" type="curve" smooth="yes"/>
      <point x="63" y="36"/>
      <point x="90" y="-3"/>
      <point x="154" y="-25" type="curve"/>
      <point x="156" y="-29" type="line"/>
      <point x="446" y="-29" type="line" smooth="yes"/>
      <point x="516" y="-29"/>
      <point x="541" y="-47"/>
      <point x="541" y="-81" type="curve" smooth="yes"/>
      <point x="541" y="-140"/>
      <point x="458" y="-175"/>
      <point x="333" y="-175" type="curve" smooth="yes"/>
      <point x="289" y="-175" type="line" smooth="yes"/>
      <point x="159" y="-175"/>
      <point x="110" y="-149"/>
      <point x="110" y="-102" type="curve" smooth="yes"/>
      <point x="110" y="-68"/>
      <point x="136" y="-41"/>
      <point x="198" y="-16" type="curve"/>
      <point x="158" y="10" type="line"/>
      <point x="67" y="-27"/>
      <point x="22" y="-67"/>
      <point x="22" y="-115" type="curve" smooth="yes"/>
      <point x="22" y="-204"/>
      <point x="128" y="-236"/>
      <point x="289" y="-236" type="curve" smooth="yes"/>
    </contour>
    <contour>
      <point x="316" y="545" type="move" name="top"/>
    </contour>
  </outline>
</glyph>
<glyph name="h" format="1">
  <advance width="730"/>
  <unicode hex="0068"/>
  <outline>
    <contour>
      <point x="229" y="735" type="line"/>
      <point x="54" y="735" type="line"/>
      <point x="54" y="687" type="line"/>
      <point x="67" y="685" type="line" smooth="yes"/>
      <point x="113" y="678"/>
      <point x="134" y="672"/>
      <point x="134" y="643" type="curve" smooth="yes"/>
      <point x="134" y="82" type="line" smooth="yes"/>
      <point x="134" y="54"/>
      <point x="101" y="47"/>
      <point x="56" y="47" type="curve" smooth="yes"/>
      <point x="54" y="47" type="line"/>
      <point x="54" y="0" type="line"/>
      <point x="297" y="0" type="line"/>
      <point x="297" y="47" type="line"/>
      <point x="294" y="47" type="line" smooth="yes"/>
      <point x="269" y="47"/>
      <point x="229" y="50"/>
      <point x="229" y="56" type="curve"/>
    </contour>
    <contour>
      <point x="692" y="0" type="line"/>
      <point x="692" y="47" type="line"/>
      <point x="689" y="47" type="line" smooth="yes"/>
      <point x="645" y="47"/>
      <point x="613" y="54"/>
      <point x="613" y="82" type="curve" smooth="yes"/>
      <point x="613" y="332" type="line" smooth="yes"/>
      <point x="613" y="458"/>
      <point x="537" y="518"/>
      <point x="423" y="518" type="curve" smooth="yes"/>
      <point x="335" y="518"/>
      <point x="267" y="478"/>
      <point x="211" y="407" type="curve"/>
      <point x="211" y="337" type="line"/>
      <point x="259" y="408"/>
      <point x="328" y="452"/>
      <point x="405" y="452" type="curve" smooth="yes"/>
      <point x="486" y="452"/>
      <point x="517" y="406"/>
      <point x="517" y="319" type="curve" smooth="yes"/>
      <point x="517" y="56" type="line" smooth="yes"/>
      <point x="517" y="50"/>
      <point x="476" y="47"/>
      <point x="452" y="47" type="curve" smooth="yes"/>
      <point x="449" y="47" type="line"/>
      <point x="449" y="0" type="line"/>
    </contour>
    <contour>
      <point x="383" y="754" type="move" name="top"/>
    </contour>
    <contour>
      <point x="371" y="0" type="move" name="bottom"/>
    </contour>
  </outline>
</glyph>
<glyph name="i" format="1">
  <advance width="347"/>
  <unicode hex="0069"/>
  <outline>
    <contour>
      <point x="175" y="616" type="curve" smooth="yes"/>
      <point x="214" y="616"/>
      <point x="243" y="640"/>
      <point x="243" y="679" type="curve" smooth="yes"/>
      <point x="243" y="717"/>
      <point x="214" y="740"/>
      <point x="175" y="740" type="curve" smooth="yes"/>
      <point x="136" y="740"/>
      <point x="108" y="717"/>
      <point x="108" y="679" type="curve" smooth="yes"/>
      <point x="108" y="639"/>
      <point x="136" y="616"/>
    </contour>
    <contour>
      <point x="229" y="508" type="line"/>
      <point x="54" y="508" type="line"/>
      <point x="54" y="461" type="line"/>
      <point x="67" y="459" type="line" smooth="yes"/>
      <point x="114" y="452"/>
      <point x="134" y="446"/>
      <point x="134" y="418" type="curve" smooth="yes"/>
      <point x="134" y="82" type="line" smooth="yes"/>
      <point x="134" y="54"/>
      <point x="101" y="47"/>
      <point x="56" y="47" type="curve" smooth="yes"/>
      <point x="55" y="47" type="line"/>
      <point x="55" y="0" type="line"/>
      <point x="308" y="0" type="line"/>
      <point x="308" y="47" type="line"/>
      <point x="306" y="47" type="line" smooth="yes"/>
      <point x="262" y="47"/>
      <point x="229" y="54"/>
      <point x="229" y="82" type="curve" smooth="yes"/>
    </contour>
    <contour>
      <point x="184" y="551" type="move" name="top"/>
    </contour>
    <contour>
      <point x="237" y="-10" type="move" name="right"/>
    </contour>
    <contour>
      <point x="182" y="-10" type="move" name="bottom"/>
    </contour>
  </outline>
</glyph>
<glyph name="j" format="1">
  <advance width="321"/>
  <unicode hex="006A"/>
  <outline>
    <contour>
      <point x="125" y="-58" type="line" smooth="yes"/>
      <point x="125" y="-145"/>
      <point x="83" y="-172"/>
      <point x="17" y="-172" type="curve" smooth="yes"/>
      <point x="-18" y="-172"/>
      <point x="-43" y="-167"/>
      <point x="-72" y="-159" type="curve"/>
      <point x="-72" y="-224" type="line"/>
      <point x="-48" y="-232"/>
      <point x="-16" y="-236"/>
      <point x="20" y="-236" type="curve" smooth="yes"/>
      <point x="125" y="-236"/>
      <point x="220" y="-196"/>
      <point x="220" y="-56" type="curve" smooth="yes"/>
      <point x="220" y="508" type="line"/>
      <point x="33" y="508" type="line"/>
      <point x="33" y="461" type="line"/>
      <point x="51" y="459" type="line" smooth="yes"/>
      <point x="102" y="453"/>
      <point x="125" y="446"/>
      <point x="125" y="418" type="curve" smooth="yes"/>
    </contour>
    <contour>
      <point x="165" y="616" type="curve" smooth="yes"/>
      <point x="204" y="616"/>
      <point x="233" y="640"/>
      <point x="233" y="679" type="curve" smooth="yes"/>
      <point x="233" y="717"/>
      <point x="204" y="740"/>
      <point x="165" y="740" type="curve" smooth="yes"/>
      <point x="127" y="740"/>
      <point x="98" y="717"/>
      <point x="98" y="679" type="curve" smooth="yes"/>
      <point x="98" y="639"/>
      <point x="127" y="616"/>
    </contour>
    <contour>
      <point x="172" y="551" type="move" name="top"/>
    </contour>
  </outline>
</glyph>
<glyph name="l" format="1">
  <advance width="337"/>
  <unicode hex="006C"/>
  <outline>
    <contour>
      <point x="224" y="735" type="line"/>
      <point x="49" y="735" type="line"/>
      <point x="49" y="687" type="line"/>
      <point x="62" y="685" type="line" smooth="yes"/>
      <point x="109" y="678"/>
      <point x="129" y="673"/>
      <point x="129" y="644" type="curve" smooth="yes"/>
      <point x="129" y="82" type="line" smooth="yes"/>
      <point x="129" y="54"/>
      <point x="97" y="47"/>
      <point x="53" y="47" type="curve" smooth="yes"/>
      <point x="50" y="47" type="line"/>
      <point x="50" y="0" type="line"/>
      <point x="303" y="0" type="line"/>
      <point x="303" y="47" type="line"/>
      <point x="300" y="47" type="line" smooth="yes"/>
      <point x="256" y="47"/>
      <point x="224" y="54"/>
      <point x="224" y="82" type="curve" smooth="yes"/>
    </contour>
    <contour>
      <point x="177" y="746" type="move" name="top"/>
    </contour>
    <contour>
      <point x="301" y="735" type="move" name="right"/>
    </contour>
    <contour>
      <point x="366" y="391" type="move" name="mid"/>
    </contour>
    <contour>
      <point x="181" y="0" type="move" name="bottom"/>
    </contour>
  </outline>
</glyph>
<glyph name="m" format="1">
  <advance width="1043"/>
  <unicode hex="006D"/>
  <outline>
    <contour>
      <point x="54" y="0" type="line"/>
      <point x="291" y="0" type="line"/>
      <point x="291" y="47" type="line"/>
      <point x="289" y="47" type="line" smooth="yes"/>
      <point x="265" y="47"/>
      <point x="228" y="50"/>
      <point x="228" y="56" type="curve" smooth="yes"/>
      <point x="228" y="393" type="line"/>
      <point x="218" y="403" type="line"/>
      <point x="218" y="508" type="line"/>
      <point x="54" y="508" type="line"/>
      <point x="54" y="461" type="line"/>
      <point x="66" y="459" type="line" smooth="yes"/>
      <point x="112" y="451"/>
      <point x="133" y="446"/>
      <point x="133" y="418" type="curve" smooth="yes"/>
      <point x="133" y="82" type="line" smooth="yes"/>
      <point x="133" y="54"/>
      <point x="101" y="47"/>
      <point x="56" y="47" type="curve" smooth="yes"/>
      <point x="54" y="47" type="line"/>
    </contour>
    <contour>
      <point x="641" y="0" type="line"/>
      <point x="641" y="47" type="line"/>
      <point x="639" y="47" type="line" smooth="yes"/>
      <point x="614" y="47"/>
      <point x="576" y="50"/>
      <point x="576" y="56" type="curve" smooth="yes"/>
      <point x="576" y="346" type="line" smooth="yes"/>
      <point x="576" y="465"/>
      <point x="506" y="518"/>
      <point x="407" y="518" type="curve" smooth="yes"/>
      <point x="326" y="518"/>
      <point x="261" y="476"/>
      <point x="211" y="410" type="curve"/>
      <point x="211" y="338" type="line"/>
      <point x="263" y="409"/>
      <point x="318" y="452"/>
      <point x="388" y="452" type="curve" smooth="yes"/>
      <point x="454" y="452"/>
      <point x="481" y="416"/>
      <point x="481" y="335" type="curve" smooth="yes"/>
      <point x="481" y="56" type="line" smooth="yes"/>
      <point x="481" y="50"/>
      <point x="444" y="47"/>
      <point x="419" y="47" type="curve" smooth="yes"/>
      <point x="417" y="47" type="line"/>
      <point x="417" y="0" type="line"/>
    </contour>
    <contour>
      <point x="1005" y="0" type="line"/>
      <point x="1005" y="47" type="line"/>
      <point x="1002" y="47" type="line" smooth="yes"/>
      <point x="958" y="47"/>
      <point x="925" y="54"/>
      <point x="925" y="82" type="curve" smooth="yes"/>
      <point x="925" y="346" type="line" smooth="yes"/>
      <point x="925" y="465"/>
      <point x="855" y="518"/>
      <point x="756" y="518" type="curve" smooth="yes"/>
      <point x="675" y="518"/>
      <point x="610" y="476"/>
      <point x="560" y="410" type="curve"/>
      <point x="560" y="338" type="line"/>
      <point x="612" y="409"/>
      <point x="667" y="452"/>
      <point x="737" y="452" type="curve" smooth="yes"/>
      <point x="803" y="452"/>
      <point x="830" y="416"/>
      <point x="830" y="335" type="curve" smooth="yes"/>
      <point x="830" y="56" type="line" smooth="yes"/>
      <point x="830" y="50"/>
      <point x="793" y="47"/>
      <point x="768" y="47" type="curve" smooth="yes"/>
      <point x="766" y="47" type="line"/>
      <point x="766" y="0" type="line"/>
    </contour>
  </outline>
</glyph>
<glyph name="o" format="1">
  <advance width="682"/>
  <unicode hex="006F"/>
  <outline>
    <contour>
      <point x="341" y="-10" type="curve" smooth="yes"/>
      <point x="511" y="-10"/>
      <point x="638" y="97"/>
      <point x="638" y="254" type="curve" smooth="yes"/>
      <point x="638" y="409"/>
      <point x="511" y="518"/>
      <point x="341" y="518" type="curve" smooth="yes"/>
      <point x="171" y="518"/>
      <point x="44" y="410"/>
      <point x="44" y="254" type="curve" smooth="yes"/>
      <point x="44" y="97"/>
      <point x="171" y="-10"/>
    </contour>
    <contour>
      <point x="341" y="49" type="curve" smooth="yes"/>
      <point x="221" y="49"/>
      <point x="144" y="129"/>
      <point x="144" y="254" type="curve" smooth="yes"/>
      <point x="144" y="377"/>
      <point x="221" y="459"/>
      <point x="341" y="459" type="curve" smooth="yes"/>
      <point x="460" y="459"/>
      <point x="538" y="377"/>
      <point x="538" y="254" type="curve" smooth="yes"/>
      <point x="538" y="128"/>
      <point x="460" y="49"/>
    </contour>
    <contour>
      <point x="341" y="551" type="move" name="top"/>
    </contour>
    <contour>
      <point x="461" y="0" type="move" name="right"/>
    </contour>
    <contour>
      <point x="341" y="0" type="move" name="bottom"/>
    </contour>
  </outline>
</glyph>
<glyph name="q" format="1">
  <advance width="714"/>
  <unicode hex="0071"/>
  <outline>
    <contour>
      <point x="414" y="-223" type="line"/>
      <point x="688" y="-223" type="line"/>
      <point x="688" y="-176" type="line"/>
      <point x="686" y="-176" type="line"/>
      <point x="629" y="-176"/>
      <point x="609" y="-170"/>
      <point x="609" y="-141" type="curve" smooth="yes"/>
      <point x="609" y="511" type="line"/>
      <point x="543" y="511" type="line"/>
      <point x="522" y="403" type="line"/>
      <point x="514" y="386" type="line"/>
      <point x="514" y="-167" type="line" smooth="yes"/>
      <point x="514" y="-174"/>
      <point x="478" y="-176"/>
      <point x="448" y="-176" type="curve" smooth="yes"/>
      <point x="414" y="-176" type="line"/>
    </contour>
    <contour>
      <point x="320" y="518" type="curve" smooth="yes"/>
      <point x="154" y="518"/>
      <point x="44" y="409"/>
      <point x="44" y="250" type="curve" smooth="yes"/>
      <point x="44" y="94"/>
      <point x="148" y="-10"/>
      <point x="312" y="-10" type="curve" smooth="yes"/>
      <point x="410" y="-10"/>
      <point x="483" y="42"/>
      <point x="531" y="115" type="curve"/>
      <point x="531" y="202" type="line"/>
      <point x="477" y="102"/>
      <point x="410" y="50"/>
      <point x="319" y="50" type="curve" smooth="yes"/>
      <point x="205" y="50"/>
      <point x="144" y="127"/>
      <point x="144" y="250" type="curve" smooth="yes"/>
      <point x="144" y="375"/>
      <point x="206" y="458"/>
      <point x="323" y="458" type="curve" smooth="yes"/>
      <point x="412" y="458"/>
      <point x="485" y="412"/>
      <point x="531" y="320" type="curve"/>
      <point x="531" y="408" type="line"/>
      <point x="486" y="474"/>
      <point x="420" y="518"/>
    </contour>
  </outline>
</glyph>
<glyph name="u" format="1">
  <advance width="701"/>
  <unicode hex="0075"/>
  <outline>
    <contour>
      <point x="209" y="508" type="line"/>
      <point x="34" y="508" type="line"/>
      <point x="34" y="461" type="line"/>
      <point x="47" y="459" type="line" smooth="yes"/>
      <point x="92" y="452"/>
      <point x="114" y="446"/>
      <point x="114" y="418" type="curve" smooth="yes"/>
      <point x="114" y="170" type="line" smooth="yes"/>
      <point x="114" y="41"/>
      <point x="185" y="-10"/>
      <point x="300" y="-10" type="curve" smooth="yes"/>
      <point x="383" y="-10"/>
      <point x="454" y="26"/>
      <point x="509" y="98" type="curve"/>
      <point x="509" y="170" type="line"/>
      <point x="457" y="95"/>
      <point x="391" y="56"/>
      <point x="318" y="56" type="curve" smooth="yes"/>
      <point x="233" y="56"/>
      <point x="209" y="94"/>
      <point x="209" y="181" type="curve" smooth="yes"/>
    </contour>
    <contour>
      <point x="586" y="508" type="line"/>
      <point x="397" y="508" type="line"/>
      <point x="397" y="461" type="line"/>
      <point x="419" y="458" type="line" smooth="yes"/>
      <point x="468" y="451"/>
      <point x="491" y="446"/>
      <point x="491" y="418" type="curve" smooth="yes"/>
      <point x="491" y="116" type="line"/>
      <point x="500" y="105" type="line"/>
      <point x="500" y="0" type="line"/>
      <point x="667" y="0" type="line"/>
      <point x="667" y="47" type="line"/>
      <point x="664" y="47" type="line" smooth="yes"/>
      <point x="608" y="47"/>
      <point x="586" y="54"/>
      <point x="586" y="82" type="curve" smooth="yes"/>
    </contour>
    <contour>
      <point x="326" y="551" type="move" name="top"/>
    </contour>
    <contour>
      <point x="517" y="0" type="move" name="right"/>
    </contour>
    <contour>
      <point x="325" y="0" type="move" name="bottom"/>
    </contour>
  </outline>
</glyph>
<glyph name="v" format="1">
  <advance width="641"/>
  <unicode hex="0076"/>
  <outline>
    <contour>
      <point x="501" y="441" type="curve"/>
      <point x="334" y="58" type="line"/>
      <point x="342" y="58" type="line"/>
      <point x="169" y="453" type="line"/>
      <point x="169" y="460"/>
      <point x="215" y="462"/>
      <point x="260" y="462" type="curve" smooth="yes"/>
      <point x="263" y="462" type="line"/>
      <point x="263" y="508" type="line"/>
      <point x="7" y="508" type="line"/>
      <point x="7" y="462" type="line"/>
      <point x="9" y="462" type="line" smooth="yes"/>
      <point x="48" y="462"/>
      <point x="70" y="454"/>
      <point x="82" y="428" type="curve" smooth="yes"/>
      <point x="274" y="0" type="line"/>
      <point x="373" y="0" type="line"/>
      <point x="560" y="420" type="line" smooth="yes"/>
      <point x="575" y="453"/>
      <point x="601" y="462"/>
      <point x="631" y="462" type="curve" smooth="yes"/>
      <point x="634" y="462" type="line"/>
      <point x="634" y="508" type="line"/>
      <point x="411" y="508" type="line"/>
      <point x="411" y="462" type="line"/>
      <point x="413" y="462" type="line" smooth="yes"/>
      <point x="456" y="462"/>
      <point x="499" y="453"/>
    </contour>
  </outline>
</glyph>
<glyph name="y" format="1">
  <advance width="652"/>
  <unicode hex="0079"/>
  <outline>
    <contour>
      <point x="299" y="-17" type="line"/>
      <point x="352" y="8" type="line"/>
      <point x="363" y="50" type="line"/>
      <point x="171" y="453" type="line"/>
      <point x="171" y="460"/>
      <point x="221" y="462"/>
      <point x="261" y="462" type="curve" smooth="yes"/>
      <point x="263" y="462" type="line"/>
      <point x="263" y="508" type="line"/>
      <point x="7" y="508" type="line"/>
      <point x="7" y="462" type="line"/>
      <point x="8" y="462" type="line"/>
      <point x="48" y="462"/>
      <point x="70" y="454"/>
      <point x="83" y="427" type="curve" smooth="yes"/>
    </contour>
    <contour>
      <point x="104" y="-232" type="curve" smooth="yes"/>
      <point x="225" y="-232"/>
      <point x="288" y="-171"/>
      <point x="340" y="-64" type="curve" smooth="yes"/>
      <point x="573" y="417" type="line" smooth="yes"/>
      <point x="590" y="453"/>
      <point x="612" y="462"/>
      <point x="644" y="462" type="curve"/>
      <point x="645" y="462" type="line"/>
      <point x="645" y="508" type="line"/>
      <point x="422" y="508" type="line"/>
      <point x="422" y="462" type="line"/>
      <point x="425" y="462" type="line" smooth="yes"/>
      <point x="467" y="462"/>
      <point x="512" y="453"/>
      <point x="512" y="440" type="curve"/>
      <point x="339" y="69" type="line"/>
      <point x="291" y="-23" type="line" smooth="yes"/>
      <point x="240" y="-121"/>
      <point x="191" y="-148"/>
      <point x="110" y="-148" type="curve" smooth="yes"/>
      <point x="63" y="-148"/>
      <point x="26" y="-132"/>
      <point x="19" y="-130" type="curve"/>
      <point x="19" y="-214" type="line"/>
      <point x="34" y="-224"/>
      <point x="66" y="-232"/>
    </contour>
    <contour>
      <point x="331" y="551" type="move" name="top"/>
    </contour>
    <contour>
      <point x="342" y="-211" type="move" name="bottom"/>
    </contour>
  </outline>
</glyph>
<glyph name="braceleft" format="1">
  <advance width="381"/>
  <unicode hex="007B"/>
  <outline>
    <contour>
      <point x="275" y="227" type="curve" smooth="yes"/>
      <point x="275" y="265"/>
      <point x="254" y="283"/>
      <point x="126" y="300" type="curve"/>
      <point x="126" y="304" type="line"/>
      <point x="254" y="321"/>
      <point x="275" y="339"/>
      <point x="275" y="377" type="curve" smooth="yes"/>
      <point x="275" y="419"/>
      <point x="177" y="527"/>
      <point x="177" y="600" type="curve" smooth="yes"/>
      <point x="177" y="674"/>
      <point x="231" y="701"/>
      <point x="356" y="699" type="curve"/>
      <point x="341" y="749" type="line"/>
      <point x="194" y="756"/>
      <point x="80" y="720"/>
      <point x="80" y="608" type="curve" smooth="yes"/>
      <point x="80" y="522"/>
      <point x="167" y="426"/>
      <point x="213" y="352" type="curve"/>
      <point x="227" y="371" type="line"/>
      <point x="55" y="323" type="line"/>
      <point x="55" y="281" type="line"/>
      <point x="227" y="233" type="line"/>
      <point x="213" y="252" type="line"/>
      <point x="167" y="178"/>
      <point x="80" y="82"/>
      <point x="80" y="-4" type="curve" smooth="yes"/>
      <point x="80" y="-116"/>
      <point x="194" y="-152"/>
      <point x="341" y="-145" type="curve"/>
      <point x="356" y="-95" type="line"/>
      <point x="231" y="-97"/>
      <point x="177" y="-70"/>
      <point x="177" y="4" type="curve" smooth="yes"/>
      <point x="177" y="77"/>
      <point x="275" y="185"/>
    </contour>
  </outline>
</glyph>
<glyph name="sterling" format="1">
  <advance width="658"/>
  <unicode hex="00A3"/>
  <outline>
    <contour>
      <point x="47" y="367" type="line"/>
      <point x="47" y="310" type="line"/>
      <point x="490" y="310" type="line"/>
      <point x="490" y="367" type="line"/>
    </contour>
    <contour>
      <point x="37" y="-13" type="line"/>
      <point x="205" y="25"/>
      <point x="294" y="117"/>
      <point x="294" y="238" type="curve" smooth="yes"/>
      <point x="294" y="353"/>
      <point x="208" y="413"/>
      <point x="208" y="523" type="curve" smooth="yes"/>
      <point x="208" y="609"/>
      <point x="275" y="656"/>
      <point x="369" y="656" type="curve" smooth="yes"/>
      <point x="447" y="656"/>
      <point x="493" y="631"/>
      <point x="526" y="603" type="curve"/>
      <point x="525" y="623"/>
      <point x="512" y="647"/>
      <point x="484" y="649" type="curve"/>
      <point x="484" y="543" type="line"/>
      <point x="580" y="543" type="line"/>
      <point x="580" y="662" type="line"/>
      <point x="548" y="687"/>
      <point x="478" y="718"/>
      <point x="368" y="718" type="curve" smooth="yes"/>
      <point x="214" y="718"/>
      <point x="108" y="639"/>
      <point x="108" y="518" type="curve" smooth="yes"/>
      <point x="108" y="406"/>
      <point x="205" y="337"/>
      <point x="205" y="223" type="curve" smooth="yes"/>
      <point x="205" y="143"/>
      <point x="156" y="95"/>
      <point x="37" y="60" type="curve"/>
    </contour>
    <contour>
      <point x="445" y="-10" type="curve" smooth="yes"/>
      <point x="553" y="-10"/>
      <point x="609" y="77"/>
      <point x="630" y="176" type="curve"/>
      <point x="570" y="194" type="line"/>
      <point x="547" y="118"/>
      <point x="515" y="84"/>
      <point x="452" y="84" type="curve" smooth="yes"/>
      <point x="386" y="84"/>
      <point x="318" y="112"/>
      <point x="234" y="175" type="curve"/>
      <point x="218" y="166"/>
      <point x="203" y="140"/>
      <point x="197" y="122" type="curve"/>
      <point x="306" y="35"/>
      <point x="355" y="-10"/>
    </contour>
  </outline>
</glyph>
<glyph name="Uogonek" format="1">
  <advance width="944"/>
  <unicode hex="0172"/>
  <outline>
    <contour>
      <point x="550" y="-236" type="curve" smooth="yes"/>
      <point x="609" y="-236"/>
      <point x="642" y="-217"/>
      <point x="672" y="-189" type="curve"/>
      <point x="640" y="-154" type="line"/>
      <point x="623" y="-166"/>
      <point x="601" y="-182"/>
      <point x="573" y="-182" type="curve" smooth="yes"/>
      <point x="544" y="-182"/>
      <point x="522" y="-167"/>
      <point x="522" y="-134" type="curve" smooth="yes"/>
      <point x="522" y="-58"/>
      <point x="637" y="21"/>
      <point x="693" y="59" type="curve" smooth="yes"/>
      <point x="747" y="104"/>
      <point x="780" y="174"/>
      <point x="780" y="271" type="curve" smooth="yes"/>
      <point x="780" y="616" type="line" smooth="yes"/>
      <point x="780" y="650"/>
      <point x="822" y="661"/>
      <point x="880" y="661" type="curve" smooth="yes"/>
      <point x="893" y="661" type="line"/>
      <point x="893" y="710" type="line"/>
      <point x="597" y="710" type="line"/>
      <point x="597" y="661" type="line"/>
      <point x="608" y="661" type="line" smooth="yes"/>
      <point x="652" y="661"/>
      <point x="710" y="653"/>
      <point x="710" y="639" type="curve" smooth="yes"/>
      <point x="710" y="271" type="line" smooth="yes"/>
      <point x="710" y="113"/>
      <point x="615" y="61"/>
      <point x="488" y="61" type="curve" smooth="yes"/>
      <point x="358" y="61"/>
      <point x="263" y="113"/>
      <point x="263" y="271" type="curve" smooth="yes"/>
      <point x="263" y="651" type="line" smooth="yes"/>
      <point x="263" y="658"/>
      <point x="320" y="661"/>
      <point x="365" y="661" type="curve" smooth="yes"/>
      <point x="376" y="661" type="line"/>
      <point x="376" y="710" type="line"/>
      <point x="51" y="710" type="line"/>
      <point x="51" y="661" type="line"/>
      <point x="64" y="661" type="line" smooth="yes"/>
      <point x="121" y="661"/>
      <point x="164" y="654"/>
      <point x="164" y="625" type="curve" smooth="yes"/>
      <point x="164" y="271" type="line" smooth="yes"/>
      <point x="164" y="71"/>
      <point x="296" y="-10"/>
      <point x="476" y="-10" type="curve" smooth="yes"/>
      <point x="529" y="-10"/>
      <point x="580" y="-2"/>
      <point x="622" y="17" type="curve"/>
      <point x="619" y="45" type="line"/>
      <point x="512" y="-23"/>
      <point x="426" y="-76"/>
      <point x="426" y="-145" type="curve" smooth="yes"/>
      <point x="426" y="-202"/>
      <point x="478" y="-236"/>
    </contour>
  </outline>
</glyph>
<glyph name="circumflexcomb" format="1">
  <unicode hex="0302"/>
  <outline>
    <component base="circumflex" xOffset="-608"/>
    <contour>
      <point x="-364" y="529" type="move" name="_top"/>
    </contour>
  </outline>
</glyph>
<glyph name="commaaccentcomb" format="1">
  <unicode hex="0326"/>
  <outline>
    <component base="commaaccent" xOffset="-599"/>
    <contour>
      <point x="-355" y="33" type="move" name="_bottom"/>
    </contour>
  </outline>
</glyph>
<glyph name="dieresisacute" format="1">
  <advance width="588"/>
  <unicode hex="1FEE"/>
  <outline>
    <component base="dieresis" xOffset="42"/>
    <component base="acute" xOffset="82" yOffset="200"/>
    <contour>
      <point x="296" y="526" type="move" name="_top"/>
    </contour>
  </outline>
</glyph>
<glyph name="fraction" format="1">
  <advance width="498"/>
  <unicode hex="2044"/>
  <outline>
    <contour>
      <point x="579" y="710" type="line"/>
      <point x="-143" y="0" type="line"/>
      <point x="-61" y="0" type="line"/>
      <point x="661" y="710" type="line"/>
    </contour>
  </outline>
</glyph>
<glyph name="naira" format="1">
  <advance width="658"/>
  <unicode hex="20A6"/>
  <outline>
    <contour>
      <point x="142" y="696" type="line"/>
      <point x="454" y="0" type="line"/>
      <point x="558" y="0" type="line"/>
      <point x="558" y="620" type="line" smooth="yes"/>
      <point x="558" y="650"/>
      <point x="587" y="661"/>
      <point x="626" y="661" type="curve" smooth="yes"/>
      <point x="639" y="661" type="line"/>
      <point x="639" y="710" type="line"/>
      <point x="392" y="710" type="line"/>
      <point x="392" y="661" type="line"/>
      <point x="409" y="661" type="line"/>
      <point x="445" y="661"/>
      <point x="489" y="653"/>
      <point x="489" y="646" type="curve" smooth="yes"/>
      <point x="489" y="36" type="line"/>
      <point x="525" y="20" type="line"/>
      <point x="222" y="710" type="line"/>
      <point x="19" y="710" type="line"/>
      <point x="19" y="661" type="line"/>
      <point x="32" y="661" type="line" smooth="yes"/>
      <point x="71" y="661"/>
      <point x="100" y="654"/>
      <point x="100" y="625" type="curve" smooth="yes"/>
      <point x="100" y="90" type="line" smooth="yes"/>
      <point x="100" y="61"/>
      <point x="71" y="49"/>
      <point x="32" y="49" type="curve" smooth="yes"/>
      <point x="19" y="49" type="line"/>
      <point x="19" y="0" type="line"/>
      <point x="266" y="0" type="line"/>
      <point x="266" y="49" type="line"/>
      <point x="249" y="49" type="line" smooth="yes"/>
      <point x="213" y="49"/>
      <point x="169" y="57"/>
      <point x="169" y="64" type="curve" smooth="yes"/>
      <point x="169" y="695" type="line"/>
    </contour>
    <contour>
      <point x="139" y="461" type="line"/>
      <point x="13" y="461" type="line"/>
      <point x="13" y="407" type="line"/>
      <point x="136" y="407" type="line"/>
    </contour>
    <contour>
      <point x="307" y="408" type="line"/>
      <point x="519" y="408" type="line"/>
      <point x="537" y="407" type="line"/>
      <point x="645" y="407" type="line"/>
      <point x="645" y="461" type="line"/>
      <point x="304" y="461" type="line"/>
    </contour>
    <contour>
      <point x="532" y="247" type="line"/>
      <point x="645" y="247" type="line"/>
      <point x="645" y="301" type="line"/>
      <point x="534" y="301" type="line"/>
    </contour>
    <contour>
      <point x="363" y="300" type="line"/>
      <point x="149" y="300" type="line"/>
      <point x="131" y="301" type="line"/>
      <point x="13" y="301" type="line"/>
      <point x="13" y="247" type="line"/>
      <point x="392" y="247" type="line"/>
    </contour>
  </outline>
</glyph>
<glyph name="peseta" format="1">
  <advance width="658"/>
  <unicode hex="20A7"/>
  <outline>
    <contour>
      <point x="2" y="0" type="line"/>
      <point x="225" y="0" type="line"/>
      <point x="225" y="49" type="line"/>
      <point x="210" y="49" type="line" smooth="yes"/>
      <point x="186" y="49"/>
      <point x="151" y="52"/>
      <point x="151" y="59" type="curve" smooth="yes"/>
      <point x="151" y="255" type="line"/>
      <point x="170" y="255" type="line" smooth="yes"/>
      <point x="324" y="255"/>
      <point x="405" y="351"/>
      <point x="405" y="486" type="curve" smooth="yes"/>
      <point x="405" y="622"/>
      <point x="329" y="710"/>
      <point x="176" y="710" type="curve" smooth="yes"/>
      <point x="2" y="710" type="line"/>
      <point x="2" y="661" type="line"/>
      <point x="9" y="661" type="line" smooth="yes"/>
      <point x="37" y="661"/>
      <point x="57" y="654"/>
      <point x="57" y="626" type="curve" smooth="yes"/>
      <point x="57" y="84" type="line" smooth="yes"/>
      <point x="57" y="56"/>
      <point x="37" y="49"/>
      <point x="9" y="49" type="curve" smooth="yes"/>
      <point x="2" y="49" type="line"/>
    </contour>
    <contour>
      <point x="178" y="651" type="line" smooth="yes"/>
      <point x="272" y="651"/>
      <point x="308" y="589"/>
      <point x="308" y="485" type="curve" smooth="yes"/>
      <point x="308" y="381"/>
      <point x="271" y="312"/>
      <point x="172" y="312" type="curve" smooth="yes"/>
      <point x="151" y="312" type="line"/>
      <point x="151" y="651" type="line"/>
    </contour>
    <contour>
      <point x="376" y="449" type="line"/>
      <point x="656" y="449" type="line"/>
      <point x="656" y="508" type="line"/>
      <point x="521" y="508" type="line"/>
      <point x="481" y="574" type="line"/>
      <point x="481" y="514"/>
      <point x="456" y="503"/>
      <point x="411" y="503" type="curve" smooth="yes"/>
      <point x="376" y="503" type="line"/>
    </contour>
    <contour>
      <point x="554" y="109" type="curve" smooth="yes"/>
      <point x="554" y="648" type="line"/>
      <point x="481" y="648" type="line"/>
      <point x="481" y="500" type="line"/>
      <point x="463" y="492" type="line"/>
      <point x="463" y="109" type="line" smooth="yes"/>
      <point x="463" y="21"/>
      <point x="516" y="-11"/>
      <point x="599" y="-11" type="curve" smooth="yes"/>
      <point x="629" y="-11"/>
      <point x="648" y="-8"/>
      <point x="658" y="-5" type="curve"/>
      <point x="658" y="57" type="line"/>
      <point x="647" y="53"/>
      <point x="631" y="51"/>
      <point x="615" y="51" type="curve" smooth="yes"/>
      <point x="575" y="51"/>
      <point x="554" y="68"/>
    </contour>
  </outline>
</glyph>
<glyph name="Euro" format="1">
  <advance width="658"/>
  <unicode hex="20AC"/>
  <outline>
    <contour>
      <point x="24" y="452" type="line"/>
      <point x="24" y="394" type="line"/>
      <point x="471" y="394" type="line"/>
      <point x="471" y="452" type="line"/>
    </contour>
    <contour>
      <point x="24" y="297" type="line"/>
      <point x="24" y="239" type="line"/>
      <point x="415" y="239" type="line"/>
      <point x="415" y="297" type="line"/>
    </contour>
    <contour>
      <point x="400" y="-10" type="curve" smooth="yes"/>
      <point x="528" y="-10"/>
      <point x="608" y="60"/>
      <point x="642" y="162" type="curve"/>
      <point x="578" y="192" type="line"/>
      <point x="551" y="119"/>
      <point x="498" y="54"/>
      <point x="406" y="54" type="curve" smooth="yes"/>
      <point x="292" y="54"/>
      <point x="212" y="138"/>
      <point x="212" y="355" type="curve" smooth="yes"/>
      <point x="212" y="577"/>
      <point x="303" y="656"/>
      <point x="433" y="656" type="curve" smooth="yes"/>
      <point x="503" y="656"/>
      <point x="552" y="629"/>
      <point x="577" y="601" type="curve"/>
      <point x="594" y="617"/>
      <point x="564" y="646"/>
      <point x="527" y="655" type="curve"/>
      <point x="527" y="549" type="line"/>
      <point x="627" y="549" type="line"/>
      <point x="627" y="673" type="line"/>
      <point x="599" y="691"/>
      <point x="534" y="720"/>
      <point x="433" y="720" type="curve" smooth="yes"/>
      <point x="251" y="720"/>
      <point x="110" y="609"/>
      <point x="110" y="355" type="curve" smooth="yes"/>
      <point x="110" y="102"/>
      <point x="234" y="-10"/>
    </contour>
  </outline>
</glyph>
<glyph name="numero" format="1">
  <advance width="1467"/>
  <unicode hex="2116"/>
  <outline>
    <contour>
      <point x="978" y="238" type="line"/>
      <point x="1375" y="238" type="line"/>
      <point x="1375" y="180" type="line"/>
      <point x="978" y="180" type="line"/>
    </contour>
    <component base="N" xOffset="108"/>
    <component base="ordmasculine" xOffset="843"/>
  </outline>
</glyph>
<glyph name="acutedotaccent" format="1">
  <advance width="588"/>
  <outline>
    <component base="acute" xOffset="43"/>
    <component base="dotaccent" xOffset="53" yOffset="181"/>
    <contour>
      <point x="264" y="543" type="move" name="top"/>
    </contour>
  </outline>
</glyph>
<glyph name="baht" format="1">
  <advance width="658"/>
  <outline>
    <contour>
      <point x="297" y="790" type="line"/>
      <point x="297" y="676" type="line"/>
      <point x="301" y="660" type="line"/>
      <point x="301" y="46" type="line"/>
      <point x="297" y="36" type="line"/>
      <point x="297" y="-110" type="line"/>
      <point x="362" y="-110" type="line"/>
      <point x="362" y="38" type="line"/>
      <point x="359" y="50" type="line"/>
      <point x="359" y="662" type="line"/>
      <point x="362" y="673" type="line"/>
      <point x="362" y="790" type="line"/>
    </contour>
    <contour>
      <point x="328" y="700" type="curve"/>
      <point x="3" y="700" type="line"/>
      <point x="3" y="652" type="line"/>
      <point x="16" y="652" type="line" smooth="yes"/>
      <point x="57" y="652"/>
      <point x="88" y="645"/>
      <point x="88" y="616" type="curve" smooth="yes"/>
      <point x="88" y="94" type="line" smooth="yes"/>
      <point x="88" y="65"/>
      <point x="57" y="58"/>
      <point x="16" y="58" type="curve" smooth="yes"/>
      <point x="3" y="58" type="line"/>
      <point x="3" y="10" type="line"/>
      <point x="339" y="10" type="line" smooth="yes"/>
      <point x="532" y="10"/>
      <point x="636" y="86"/>
      <point x="636" y="210" type="curve" smooth="yes"/>
      <point x="636" y="318"/>
      <point x="530" y="385"/>
      <point x="326" y="386" type="curve"/>
      <point x="316" y="364" type="line"/>
      <point x="507" y="364"/>
      <point x="600" y="430"/>
      <point x="600" y="531" type="curve" smooth="yes"/>
      <point x="600" y="636"/>
      <point x="507" y="700"/>
    </contour>
    <contour>
      <point x="351" y="400" type="curve"/>
      <point x="180" y="400" type="line"/>
      <point x="180" y="643" type="line"/>
      <point x="332" y="643" type="line"/>
      <point x="457" y="643"/>
      <point x="506" y="603"/>
      <point x="506" y="525" type="curve" smooth="yes"/>
      <point x="506" y="458"/>
      <point x="469" y="400"/>
    </contour>
    <contour>
      <point x="359" y="344" type="line"/>
      <point x="490" y="344"/>
      <point x="539" y="286"/>
      <point x="539" y="213" type="curve" smooth="yes"/>
      <point x="539" y="118"/>
      <point x="481" y="66"/>
      <point x="342" y="66" type="curve" smooth="yes"/>
      <point x="180" y="66" type="line"/>
      <point x="180" y="344" type="line"/>
    </contour>
  </outline>
</glyph>
<glyph name="blackdiamond" format="1">
  <advance width="731"/>
  <outline>
    <contour>
      <point x="672" y="313" type="line"/>
      <point x="366" y="574" type="line"/>
      <point x="59" y="313" type="line"/>
      <point x="366" y="52" type="line"/>
    </contour>
  </outline>
</glyph>
<glyph name="breve_acute" format="1">
  <advance width="599"/>
  <outline>
    <component base="acute" xOffset="74" yOffset="168"/>
    <component base="breve" xOffset="42"/>
    <contour>
      <point x="298" y="535" type="move" name="_top"/>
    </contour>
  </outline>
</glyph>
<glyph name="breveinverted.uc" format="1">
  <advance width="588"/>
  <outline>
    <component base="breve.uc" xScale="-1" yScale="-1" xOffset="546" yOffset="1659"/>
    <contour>
      <point x="283" y="691" type="move" name="_top"/>
    </contour>
  </outline>
</glyph>
<glyph name="caron.alt" format="1">
  <advance width="588"/>
  <outline>
    <contour>
      <point x="175" y="526" type="line"/>
      <point x="118" y="526" type="line"/>
      <point x="118" y="536" type="line"/>
      <point x="138" y="710" type="line"/>
      <point x="238" y="710" type="line"/>
    </contour>
    <contour>
      <point x="103" y="574" type="move" name="_right"/>
    </contour>
  </outline>
</glyph>
<glyph name="caron.uc" format="1">
  <advance width="588"/>
  <outline>
    <component base="circumflex.uc" xScale="-1" yScale="-1" xOffset="546" yOffset="1663"/>
    <contour>
      <point x="300" y="694" type="move" name="_top"/>
    </contour>
  </outline>
</glyph>
<glyph name="commaaccent.alt" format="1">
  <advance width="588"/>
  <outline>
    <component base="commaaccent" xScale="-1" yScale="-1" xOffset="544" yOffset="532"/>
    <contour>
      <point x="292" y="580" type="move" name="_top"/>
    </contour>
  </outline>
</glyph>
<glyph name="currency.proportional" format="1">
  <advance width="717"/>
  <outline>
    <contour>
      <point x="515" y="373" type="curve" smooth="yes"/>
      <point x="515" y="294"/>
      <point x="453" y="243"/>
      <point x="358" y="243" type="curve" smooth="yes"/>
      <point x="264" y="243"/>
      <point x="202" y="295"/>
      <point x="202" y="373" type="curve" smooth="yes"/>
      <point x="202" y="452"/>
      <point x="264" y="504"/>
      <point x="358" y="504" type="curve" smooth="yes"/>
      <point x="453" y="504"/>
      <point x="515" y="452"/>
    </contour>
    <contour>
      <point x="115" y="373" type="curve" smooth="yes"/>
      <point x="115" y="254"/>
      <point x="224" y="169"/>
      <point x="358" y="169" type="curve" smooth="yes"/>
      <point x="493" y="169"/>
      <point x="601" y="254"/>
      <point x="601" y="373" type="curve" smooth="yes"/>
      <point x="601" y="493"/>
      <point x="493" y="578"/>
      <point x="358" y="578" type="curve" smooth="yes"/>
      <point x="224" y="578"/>
      <point x="115" y="493"/>
    </contour>
    <contour>
      <point x="57" y="582" type="line"/>
      <point x="178" y="479" type="line"/>
      <point x="242" y="525" type="line"/>
      <point x="113" y="635" type="line"/>
    </contour>
    <contour>
      <point x="660" y="582" type="line"/>
      <point x="604" y="635" type="line"/>
      <point x="475" y="525" type="line"/>
      <point x="539" y="479" type="line"/>
    </contour>
    <contour>
      <point x="57" y="164" type="line"/>
      <point x="113" y="111" type="line"/>
      <point x="242" y="221" type="line"/>
      <point x="178" y="267" type="line"/>
    </contour>
    <contour>
      <point x="660" y="164" type="line"/>
      <point x="539" y="267" type="line"/>
      <point x="475" y="221" type="line"/>
      <point x="604" y="111" type="line"/>
    </contour>
  </outline>
</glyph>
<glyph name="dieresis_acute.uc" format="1">
  <advance width="674"/>
  <outline>
    <component base="dieresis.uc" xOffset="83"/>
    <component base="acute.uc" xOffset="125" yOffset="172"/>
    <contour>
      <point x="337" y="694" type="move" name="_top"/>
    </contour>
  </outline>
</glyph>
<glyph name="dieresisbelow" format="1">
  <advance width="588"/>
  <outline>
    <component base="dieresis" xOffset="42" yOffset="-813"/>
    <contour>
      <point x="301" y="-58" type="move" name="_bottom"/>
    </contour>
  </outline>
</glyph>
<glyph name="hookabovecomb" format="1">
  <outline>
    <component base="hook" xOffset="-592"/>
    <contour>
      <point x="-355" y="517" type="move" name="_top"/>
    </contour>
  </outline>
</glyph>
<glyph name="macron_acute" format="1">
  <advance width="658"/>
  <outline>
    <component base="macron" xOffset="76"/>
    <component base="acute" xOffset="103" yOffset="171"/>
    <contour>
      <point x="329" y="526" type="move" name="_top"/>
    </contour>
  </outline>
</glyph>
<glyph name="nine.lin" format="1">
  <advance width="658"/>
  <outline>
    <contour>
      <point x="110" y="47" type="line"/>
      <point x="361" y="61"/>
      <point x="508" y="179"/>
      <point x="508" y="401" type="curve" smooth="yes"/>
      <point x="508" y="591"/>
      <point x="437" y="658"/>
      <point x="321" y="658" type="curve" smooth="yes"/>
      <point x="217" y="658"/>
      <point x="151" y="599"/>
      <point x="151" y="497" type="curve" smooth="yes"/>
      <point x="151" y="408"/>
      <point x="204" y="340"/>
      <point x="311" y="340" type="curve" smooth="yes"/>
      <point x="409" y="340"/>
      <point x="482" y="398"/>
      <point x="525" y="485" type="curve"/>
      <point x="538" y="432" type="line"/>
      <point x="506" y="352"/>
      <point x="414" y="279"/>
      <point x="294" y="279" type="curve" smooth="yes"/>
      <point x="152" y="279"/>
      <point x="48" y="366"/>
      <point x="48" y="496" type="curve" smooth="yes"/>
      <point x="48" y="630"/>
      <point x="164" y="720"/>
      <point x="321" y="720" type="curve" smooth="yes"/>
      <point x="491" y="720"/>
      <point x="609" y="620"/>
      <point x="609" y="401" type="curve" smooth="yes"/>
      <point x="609" y="161"/>
      <point x="424" y="4"/>
      <point x="120" y="-15" type="curve"/>
    </contour>
  </outline>
</glyph>
<glyph name="seven.lin" format="1">
  <advance width="658"/>
  <outline>
    <contour>
      <point x="283" y="629" type="line" smooth="yes"/>
      <point x="182" y="629"/>
      <point x="141" y="622"/>
      <point x="136" y="586" type="curve" smooth="yes"/>
      <point x="125" y="497" type="line"/>
      <point x="68" y="497" type="line"/>
      <point x="68" y="710" type="line"/>
      <point x="623" y="710" type="line"/>
      <point x="623" y="631" type="line"/>
      <point x="485" y="463"/>
      <point x="360" y="307"/>
      <point x="328" y="0" type="curve"/>
      <point x="224" y="0" type="line"/>
      <point x="261" y="302"/>
      <point x="488" y="580"/>
      <point x="565" y="644" type="curve"/>
      <point x="577" y="629" type="line"/>
    </contour>
  </outline>
</glyph>
